<svg width="256" height="256" viewBox="0 0 256 256" fill="none" xmlns="http://www.w3.org/2000/svg">
<circle cx="128" cy="128" r="127.5" fill="#022D11" stroke="#022D11"/>
<path d="M188.897 111.755L135.261 61.149C135.235 61.1262 135.21 61.1015 135.187 61.0753C133.212 59.2794 130.639 58.2842 127.97 58.2842C125.301 58.2842 122.727 59.2794 120.752 61.0753L120.679 61.149L67.1026 111.755C66.0097 112.76 65.1374 113.981 64.5407 115.34C63.9441 116.7 63.6361 118.168 63.6364 119.653V181.636C63.6364 184.481 64.7665 187.21 66.7783 189.222C68.7901 191.233 71.5186 192.364 74.3636 192.364H106.545C109.39 192.364 112.119 191.233 114.131 189.222C116.143 187.21 117.273 184.481 117.273 181.636V149.455H138.727V181.636C138.727 184.481 139.857 187.21 141.869 189.222C143.881 191.233 146.609 192.364 149.455 192.364H181.636C184.481 192.364 187.21 191.233 189.222 189.222C191.233 187.21 192.364 184.481 192.364 181.636V119.653C192.364 118.168 192.056 116.7 191.459 115.34C190.863 113.981 189.99 112.76 188.897 111.755ZM181.636 181.636H149.455V149.455C149.455 146.61 148.324 143.881 146.313 141.869C144.301 139.858 141.572 138.727 138.727 138.727H117.273C114.428 138.727 111.699 139.858 109.687 141.869C107.676 143.881 106.545 146.61 106.545 149.455V181.636H74.3636V119.653L74.4374 119.586L128 69L181.569 119.572L181.643 119.639L181.636 181.636Z" fill="#AFE57F"/>
</svg>
